<?xml version="1.0" encoding="UTF-8"?>
<svg xmlns="http://www.w3.org/2000/svg" xmlns:xlink="http://www.w3.org/1999/xlink" width="50px" height="50px" viewBox="0 0 50 49" version="1.1">
<g id="surface1">
<path style=" stroke:none;fill-rule:nonzero;fill:rgb(0%,0%,0%);fill-opacity:1;" d="M 0 24.4375 L 0 48.875 L 49.9375 48.875 L 49.9375 0 L 0 0 Z M 39.882812 11.328125 L 39.980469 13.328125 L 40.980469 13.328125 C 42.140625 13.328125 42.105469 13.519531 40.914062 13.710938 L 40.109375 13.804688 L 39.949219 25.707031 L 39.789062 37.605469 L 38.917969 37.703125 C 38.144531 37.796875 38.015625 37.957031 38.015625 38.75 L 38.015625 39.667969 L 13.207031 39.667969 L 13.175781 40.527344 L 13.113281 41.414062 L 12.984375 40.527344 C 12.855469 39.703125 12.757812 39.667969 11.082031 39.667969 L 9.34375 39.667969 L 9.34375 11.457031 L 10.246094 11.363281 C 10.921875 11.296875 11.113281 11.109375 11.148438 10.472656 C 11.179688 10.027344 11.210938 9.585938 11.210938 9.425781 C 11.242188 9.296875 17.6875 9.234375 25.546875 9.265625 L 39.789062 9.363281 Z M 39.882812 11.328125 "/>
<path style=" stroke:none;fill-rule:nonzero;fill:rgb(0%,0%,0%);fill-opacity:1;" d="M 11.597656 10.441406 C 11.597656 11.265625 11.726562 11.394531 12.660156 11.519531 L 13.691406 11.648438 L 12.660156 11.679688 L 11.597656 11.742188 L 11.597656 16.058594 C 11.597656 18.820312 11.46875 20.277344 11.277344 20.152344 C 11.082031 20.023438 10.953125 18.25 10.953125 15.835938 C 10.953125 11.964844 10.921875 11.742188 10.308594 11.742188 C 9.664062 11.742188 9.664062 11.964844 9.664062 25.515625 L 9.664062 39.257812 L 11.210938 39.226562 C 12.5 39.195312 12.726562 39.097656 12.820312 38.527344 C 12.886719 37.988281 12.691406 37.796875 11.953125 37.671875 C 10.953125 37.480469 10.953125 37.449219 10.953125 35.417969 C 10.953125 34.273438 11.082031 33.257812 11.277344 33.164062 C 11.46875 33.035156 11.597656 33.734375 11.597656 35.035156 C 11.597656 36.910156 11.664062 37.128906 12.242188 37.128906 C 12.820312 37.128906 12.886719 36.875 12.984375 32.433594 L 13.078125 27.769531 L 13.144531 32.433594 L 13.207031 37.128906 L 37.691406 37.128906 L 37.628906 25.453125 L 37.53125 13.804688 L 31.894531 13.644531 L 26.257812 13.457031 L 31.957031 13.390625 L 37.660156 13.328125 L 37.789062 12.28125 L 37.917969 11.265625 L 37.949219 12.28125 C 38.015625 13.136719 38.144531 13.328125 38.757812 13.328125 C 39.433594 13.328125 39.496094 13.203125 39.433594 11.648438 C 39.367188 10.757812 39.335938 9.902344 39.335938 9.742188 C 39.304688 9.617188 33.085938 9.519531 25.449219 9.519531 L 11.597656 9.519531 Z M 30.605469 25.386719 C 30.605469 25.546875 30.378906 25.707031 30.121094 25.707031 C 29.574219 25.707031 29.605469 25.578125 29.511719 28.023438 C 29.476562 29.007812 29.542969 29.800781 29.703125 29.769531 C 29.832031 29.703125 30.671875 28.816406 31.570312 27.769531 C 32.796875 26.371094 33.085938 25.832031 32.699219 25.769531 C 32.441406 25.707031 32.28125 25.515625 32.378906 25.355469 C 32.636719 24.976562 35.339844 24.976562 35.597656 25.386719 C 35.695312 25.546875 35.503906 25.707031 35.148438 25.707031 C 34.535156 25.707031 31.894531 28.339844 31.894531 28.941406 C 31.894531 29.484375 35.179688 33.988281 35.824219 34.304688 C 36.921875 34.878906 36.082031 35.226562 33.632812 35.226562 C 31.828125 35.226562 31.25 35.132812 31.347656 34.8125 C 31.410156 34.625 31.667969 34.464844 31.863281 34.496094 C 32.410156 34.625 32.3125 34.304688 31.21875 32.625 C 30.21875 31.132812 29.671875 30.71875 29.605469 31.480469 C 29.511719 32.78125 29.769531 34.148438 30.15625 34.371094 C 31.152344 34.910156 30.507812 35.226562 28.351562 35.226562 C 26.546875 35.226562 26.09375 35.132812 26.09375 34.75 C 26.09375 34.496094 26.320312 34.273438 26.578125 34.273438 C 26.996094 34.273438 27.0625 33.609375 27.0625 30.148438 C 27.0625 26.753906 26.964844 25.960938 26.578125 25.832031 C 25.449219 25.386719 26.257812 25.070312 28.351562 25.070312 C 29.640625 25.070312 30.605469 25.199219 30.605469 25.386719 Z M 30.605469 25.386719 "/>
<path style=" stroke:none;fill-rule:nonzero;fill:rgb(0%,0%,0%);fill-opacity:1;" d="M 38.015625 25.421875 L 38.015625 37.128906 L 39.464844 37.128906 L 39.402344 25.484375 C 39.304688 14.027344 39.304688 13.804688 38.660156 13.773438 C 38.015625 13.742188 38.015625 13.898438 38.015625 25.421875 Z M 38.015625 25.421875 "/>
<path style=" stroke:none;fill-rule:nonzero;fill:rgb(0%,0%,0%);fill-opacity:1;" d="M 13.207031 38.496094 L 13.207031 39.351562 L 25.386719 39.289062 L 37.53125 39.195312 L 37.628906 38.464844 C 37.757812 37.605469 39.175781 37.703125 24.742188 37.636719 L 13.207031 37.605469 Z M 13.207031 38.496094 "/>
</g>
</svg>
